# xmcd
#
# Track frame offsets:
#	150
#	10409
#	30948
#	45644
#	58388
#
# Disc length: 944 seconds
#
# Revision: 0
# Processed by: cddbd v1.5.2PL0 Copyright (c) Steve Scherf et al.
# Submitted via: dBpowerAMP V4.0
#
DISCID=3903ae05
DTITLE=Andrea House - Twilight
DYEAR=2001
DGENRE=String band
TTITLE0=Twilight
TTITLE1=trying to let you go
TTITLE2=gullible
TTITLE3=Commonplace
TTITLE4=Free Yourself
EXTD=
EXTT0=
EXTT1=
EXTT2=
EXTT3=
EXTT4=
PLAYORDER=
